PathFileType	4	(X/Y/Z)	C:/Users/opensim2020/Desktop/walking_exp_matlab/subject06_walking11_run.trc																																																																																																																																								
DataRate	CameraRate	NumFrames	NumMarkers	Units	OrigDataRate	OrigDataStartFrame	OrigNumFrames																																																																																																																																				
100	100	4	46	mm	100	265	106																																																																																																																																				
Frame#	Time	LKNE			RKNE			RFRM			RWRA			RWRB			RELB			RUPA			RSHO			LWRA			RFIN			RFHD			CLAV			RASI			RTHI			LSHO			LTHI			RBHD			C7			LTIB			LANK			LTOE			LBHD			RTIB			RBAK			LHEE			RANK			STRN			RHEE			RTOE			T10			LUPA			LFHD			LPSI			RPSI			LASI			LFRM			LWRB			LFIN			LELB			*39			*40			*41			*42			*43			*44			*45		
		X1	Y1	Z1	X2	Y2	Z2	X3	Y3	Z3	X4	Y4	Z4	X5	Y5	Z5	X6	Y6	Z6	X7	Y7	Z7	X8	Y8	Z8	X9	Y9	Z9	X10	Y10	Z10	X11	Y11	Z11	X12	Y12	Z12	X13	Y13	Z13	X14	Y14	Z14	X15	Y15	Z15	X16	Y16	Z16	X17	Y17	Z17	X18	Y18	Z18	X19	Y19	Z19	X20	Y20	Z20	X21	Y21	Z21	X22	Y22	Z22	X23	Y23	Z23	X24	Y24	Z24	X25	Y25	Z25	X26	Y26	Z26	X27	Y27	Z27	X28	Y28	Z28	X29	Y29	Z29	X30	Y30	Z30	X31	Y31	Z31	X32	Y32	Z32	X33	Y33	Z33	X34	Y34	Z34	X35	Y35	Z35	X36	Y36	Z36	X37	Y37	Z37	X38	Y38	Z38	X39	Y39	Z39	X40	Y40	Z40	X41	Y41	Z41	X42	Y42	Z42	X43	Y43	Z43	X44	Y44	Z44	X45	Y45	Z45	X46	Y46	Z46
																																																																																																																																											
80	0.79	69.05881	474.33362	-1152.17078	322.41705	549.04822	-1349.88391	465.59299	1153.68359	-1132.63782	394.0582	1167.59729	-1256.35779	425.51093	1109.52332	-1252.97913	484.29169	1209.54919	-1048.45654	444.94598	1303.73425	-1090.86926	351.08328	1421.11987	-1225.27295	64.11743	1234.25366	-1371.32336	407.29745	1128.40271	-1333.01538	286.33942	1660.42065	-1317.4187	212.95145	1378.60022	-1309.73035	310.68097	977.27051	-1280.40698	358.90857	661.88751	-1300.3573	52.85968	1428.64185	-1277.48193	44.80677	636.92249	-1180.75244	277.5563	1599.08496	-1190.5968	192.612	1458.57532	-1204.80017	78.93033	400.16776	-916.45544	110.97802	355.43497	-752.74231	125.39807	208.73502	-740.45105	148.24196	1605.80432	-1194.2251	289.50461	280.38947	-1348.08472	237.49797	1306.42871	-1111.46973	156.0863	391.89413	-731.84662	218.97203	104.29732	-1358.42993	210.09526	1199.2583	-1338.40063	174.44714	96.80187	-1321.40063	191.20195	32.63536	-1510.76538	177.06593	1145.01123	-1141.72827	-61.79443	1266.57983	-1255.44128	154.36652	1672.78882	-1321.4032	107.28655	1001.77472	-1147.1189	272.06854	1011.35138	-1137.92554	97.09303	954.49365	-1294.75818	-27.67172	1154.68262	-1331.72058	68.72372	1168.67529	-1395.84363	119.24692	1222.59644	-1447.78784	-106.77325	1171.17395	-1231.98511	NaN	NaN	NaN	209.65082	1701.39502	-1215.67126	NaN	NaN	NaN	NaN	NaN	NaN	NaN	NaN	NaN	NaN	NaN	NaN	NaN	NaN	NaN
81	0.8	65.88597	464.5592	-1208.83337	321.58868	539.55597	-1385.40637	466.52451	1138.67883	-1181.58337	392.41656	1155.60278	-1303.40942	423.07272	1097.05151	-1301.22083	487.0545	1193.15137	-1096.72107	448.42624	1288.52002	-1135.31763	352.83295	1411.22888	-1265.51477	60.77406	1221.90857	-1407.42737	404.16971	1117.66016	-1380.87903	286.54428	1653.21729	-1356.49304	212.83159	1370.94751	-1348.62842	310.02698	970.56519	-1319.66187	356.88138	654.68536	-1338.53467	52.96348	1421.31018	-1313.62244	42.25037	627.49097	-1229.48352	279.78473	1591.56665	-1229.48816	194.65007	1450.79199	-1243.37061	75.17495	393.6011	-974.74927	106.66095	352.66666	-810.63873	117.89261	206.50409	-799.1076	150.46323	1598.11365	-1231.19409	286.12631	270.77573	-1368.19226	238.99847	1297.9408	-1150.86365	152.27638	388.81	-789.64728	216.43613	94.16623	-1361.52295	208.52571	1191.65161	-1377.61279	175.00166	84.93418	-1320.69336	188.61452	32.98269	-1513.21521	175.96906	1137.71326	-1180.45227	-62.36922	1260.26953	-1287.40332	154.40636	1665.43005	-1358.33948	104.71066	993.57214	-1186.61609	269.87411	1004.03137	-1176.49976	95.79149	947.06879	-1334.60938	-31.36092	1145.26758	-1363.26318	63.27901	1155.60791	-1430.51855	113.16502	1207.17529	-1485.23816	-107.2289	1165.89099	-1261.71912	NaN	NaN	NaN	211.55969	1693.82898	-1253.48511	NaN	NaN	NaN	NaN	NaN	NaN	NaN	NaN	NaN	NaN	NaN	NaN	NaN	NaN	NaN
82	0.81	62.96923	455.28995	-1266.62976	319.05994	530.10638	-1421.61353	466.94696	1122.9519	-1231.25342	390.57718	1143.10889	-1351.02429	420.59201	1084.21558	-1350.50879	489.71866	1175.96948	-1145.88367	452.01563	1272.35742	-1180.73218	355.11417	1400.66919	-1306.2334	56.41341	1208.96155	-1443.02136	400.42542	1105.97791	-1429.37903	286.29233	1645.69678	-1395.0979	212.49809	1362.78564	-1387.48499	309.14047	962.79242	-1358.64844	357.0784	644.27399	-1374.26343	52.6414	1413.46277	-1349.23657	39.66918	618.1358	-1278.92944	282.19424	1583.7063	-1268.86121	196.6694	1442.53833	-1281.52917	70.90105	386.47995	-1034.80334	101.78999	347.95828	-870.43085	110.08595	202.32991	-860.92828	152.80107	1589.97302	-1268.06348	284.90677	262.35333	-1387.24646	241.19183	1288.47156	-1189.38147	147.82263	383.59644	-848.91089	214.00468	88.79198	-1358.2804	204.985	1183.10681	-1415.30261	171.66962	78.43362	-1316.30457	185.96912	32.08749	-1511.91174	175.19521	1129.51001	-1219.01953	-62.59599	1252.9884	-1318.26453	154.27686	1657.90637	-1395.08911	102.58009	984.99249	-1225.34192	268.40518	996.12872	-1213.95435	94.77733	939.02625	-1373.84985	-35.98755	1135.27771	-1394.18127	57.15113	1141.73474	-1464.00024	105.91926	1190.68506	-1521.974	-107.66801	1159.86243	-1290.35889	160.13518	1577.54956	-1460.75757	213.3802	1685.78308	-1291.02954	NaN	NaN	NaN	NaN	NaN	NaN	NaN	NaN	NaN	NaN	NaN	NaN	NaN	NaN	NaN
83	0.82	60.18527	447.108	-1325.74414	313.77631	519.17578	-1457.78125	467.15399	1106.67444	-1281.88232	388.50159	1130.44641	-1399.47424	417.16129	1070.55969	-1400.49658	492.3559	1158.11133	-1196.08545	455.78876	1255.41992	-1227.05078	357.6424	1390.03992	-1347.86121	51.45695	1195.43652	-1476.75818	396.04584	1093.97656	-1478.50256	286.28122	1638.33777	-1434.08984	211.94063	1354.56628	-1426.27527	308.74283	953.98291	-1397.22449	353.51382	633.35229	-1408.6604	51.84192	1405.15112	-1384.74048	36.97509	609.33679	-1329.13708	284.16391	1575.45605	-1307.9115	198.48041	1434.2439	-1319.65381	66.48153	379.33411	-1096.50366	96.50753	341.66095	-932.12903	101.79945	196.4384	-926.14301	154.93947	1581.85596	-1305.06299	283.04886	256.39349	-1408.78906	243.95728	1277.95032	-1227.31885	142.95695	376.49689	-909.46027	213.72845	85.24744	-1360.30591	203.87616	1174.65186	-1454.24133	175.12779	75.81528	-1316.48743	184.96078	31.86493	-1512.10901	175.3756	1120.37378	-1256.98499	-63.75049	1245.47424	-1348.37512	154.07265	1650.64307	-1431.75952	100.81144	976.38641	-1263.13257	268.24075	988.2793	-1250.95728	94.04524	930.84448	-1412.58655	-40.40561	1124.72888	-1423.23975	50.15977	1127.52161	-1496.22095	98.27169	1173.79565	-1557.03455	-108.25085	1153.45227	-1317.75073	NaN	NaN	NaN	215.22591	1677.70605	-1328.48047	NaN	NaN	NaN	NaN	NaN	NaN	NaN	NaN	NaN	NaN	NaN	NaN	NaN	NaN	NaN
